<svg width="118" height="20" viewBox="0 0 118 20" fill="none" xmlns="http://www.w3.org/2000/svg">
<path fill-rule="evenodd" clip-rule="evenodd" d="M2.57127 19.074C2.17425 19.3879 1.6324 19.4473 1.17684 19.2268C0.721265 19.0063 0.431641 18.5445 0.431641 18.0383V1.3284C0.431641 0.822207 0.720825 0.360469 1.17684 0.139947C1.6324 -0.0805747 2.1738 -0.0211593 2.57083 0.292678L13.137 8.64523C13.4534 8.89569 13.6383 9.27732 13.6383 9.68095C13.6383 10.085 13.4539 10.4666 13.137 10.7171L2.57127 19.074Z" fill="url(#paint0_linear_7156_1086)"/>
<path fill-rule="evenodd" clip-rule="evenodd" d="M17.598 19.3672H16.2775C15.5482 19.3672 14.957 18.7761 14.957 18.0467V1.32049C14.957 0.59114 15.5482 0 16.2775 0H17.598C18.3274 0 18.9185 0.59114 18.9185 1.32049V18.0467C18.9185 18.7761 18.3274 19.3672 17.598 19.3672Z" fill="url(#paint1_linear_7156_1086)"/>
<path d="M31.008 18C30.832 18 30.728 17.912 30.696 17.736L27.432 1.512L27.408 1.416C27.408 1.272 27.496 1.2 27.672 1.2H31.2C31.392 1.2 31.496 1.288 31.512 1.464L32.592 9.36C32.608 9.408 32.632 9.432 32.664 9.432C32.696 9.432 32.72 9.408 32.736 9.36L33.816 1.464C33.832 1.288 33.936 1.2 34.128 1.2H36.936C37.128 1.2 37.232 1.288 37.248 1.464L38.448 9.36C38.464 9.408 38.488 9.432 38.52 9.432C38.552 9.432 38.568 9.408 38.568 9.36L39.552 1.464C39.568 1.288 39.664 1.2 39.84 1.2H43.296C43.504 1.2 43.592 1.304 43.56 1.512L40.464 17.736C40.448 17.912 40.344 18 40.152 18H37.08C36.888 18 36.784 17.912 36.768 17.736L35.568 9.528C35.552 9.48 35.52 9.456 35.472 9.456C35.44 9.456 35.424 9.48 35.424 9.528L34.368 17.736C34.352 17.912 34.256 18 34.08 18H31.008ZM49.236 18.192C47.684 18.192 46.444 17.744 45.516 16.848C44.604 15.952 44.148 14.744 44.148 13.224V5.976C44.148 4.472 44.604 3.272 45.516 2.376C46.444 1.464 47.684 1.008 49.236 1.008C50.772 1.008 52.004 1.464 52.932 2.376C53.876 3.272 54.348 4.472 54.348 5.976V13.224C54.348 14.744 53.876 15.952 52.932 16.848C52.004 17.744 50.772 18.192 49.236 18.192ZM49.236 14.784C49.588 14.784 49.86 14.664 50.052 14.424C50.26 14.168 50.364 13.824 50.364 13.392V5.808C50.364 5.376 50.26 5.04 50.052 4.8C49.86 4.544 49.588 4.416 49.236 4.416C48.884 4.416 48.612 4.544 48.42 4.8C48.228 5.04 48.132 5.376 48.132 5.808V13.392C48.132 13.824 48.228 14.168 48.42 14.424C48.612 14.664 48.884 14.784 49.236 14.784ZM58.9689 18C58.7929 18 58.6889 17.912 58.6569 17.736L55.3929 1.512L55.3689 1.416C55.3689 1.272 55.4569 1.2 55.6329 1.2H59.1609C59.3529 1.2 59.4569 1.288 59.4729 1.464L60.5529 9.36C60.5689 9.408 60.5929 9.432 60.6249 9.432C60.6569 9.432 60.6809 9.408 60.6969 9.36L61.7769 1.464C61.7929 1.288 61.8969 1.2 62.0889 1.2H64.8969C65.0889 1.2 65.1929 1.288 65.2089 1.464L66.4089 9.36C66.4249 9.408 66.4489 9.432 66.4809 9.432C66.5129 9.432 66.5289 9.408 66.5289 9.36L67.5129 1.464C67.5289 1.288 67.6249 1.2 67.8009 1.2H71.2569C71.4649 1.2 71.5529 1.304 71.5209 1.512L68.4249 17.736C68.4089 17.912 68.3049 18 68.1129 18H65.0409C64.8489 18 64.7449 17.912 64.7289 17.736L63.5289 9.528C63.5129 9.48 63.4809 9.456 63.4329 9.456C63.4009 9.456 63.3849 9.48 63.3849 9.528L62.3289 17.736C62.3129 17.912 62.2169 18 62.0409 18H58.9689ZM82.7777 1.2C82.8577 1.2 82.9217 1.232 82.9697 1.296C83.0337 1.344 83.0657 1.408 83.0657 1.488V4.32C83.0657 4.4 83.0337 4.472 82.9697 4.536C82.9217 4.584 82.8577 4.608 82.7777 4.608H79.8017C79.7217 4.608 79.6817 4.648 79.6817 4.728V17.712C79.6817 17.792 79.6497 17.864 79.5857 17.928C79.5377 17.976 79.4737 18 79.3937 18H75.9857C75.9057 18 75.8337 17.976 75.7697 17.928C75.7217 17.864 75.6977 17.792 75.6977 17.712V4.728C75.6977 4.648 75.6577 4.608 75.5777 4.608H72.7217C72.6417 4.608 72.5697 4.584 72.5057 4.536C72.4577 4.472 72.4337 4.4 72.4337 4.32V1.488C72.4337 1.408 72.4577 1.344 72.5057 1.296C72.5697 1.232 72.6417 1.2 72.7217 1.2H82.7777ZM89.3381 18.192C88.3461 18.192 87.4741 17.984 86.7221 17.568C85.9701 17.136 85.3861 16.536 84.9701 15.768C84.5541 15 84.3461 14.112 84.3461 13.104V1.488C84.3461 1.408 84.3701 1.344 84.4181 1.296C84.4821 1.232 84.5541 1.2 84.6341 1.2H88.0421C88.1221 1.2 88.1861 1.232 88.2341 1.296C88.2981 1.344 88.3301 1.408 88.3301 1.488V13.488C88.3301 13.872 88.4181 14.184 88.5941 14.424C88.7861 14.664 89.0341 14.784 89.3381 14.784C89.6421 14.784 89.8821 14.664 90.0581 14.424C90.2501 14.184 90.3461 13.872 90.3461 13.488V1.488C90.3461 1.408 90.3701 1.344 90.4181 1.296C90.4821 1.232 90.5541 1.2 90.6341 1.2H94.0421C94.1221 1.2 94.1861 1.232 94.2341 1.296C94.2981 1.344 94.3301 1.408 94.3301 1.488V13.104C94.3301 14.112 94.1221 15 93.7061 15.768C93.2901 16.536 92.7061 17.136 91.9541 17.568C91.2021 17.984 90.3301 18.192 89.3381 18.192ZM106.031 13.32C106.031 14.824 105.559 15.984 104.615 16.8C103.671 17.6 102.471 18 101.015 18H96.1671C96.0871 18 96.0151 17.976 95.9511 17.928C95.9031 17.864 95.8791 17.792 95.8791 17.712V1.488C95.8791 1.408 95.9031 1.344 95.9511 1.296C96.0151 1.232 96.0871 1.2 96.1671 1.2H100.391C102.055 1.2 103.359 1.592 104.303 2.376C105.263 3.144 105.743 4.304 105.743 5.856C105.743 7.392 105.239 8.52 104.231 9.24C104.151 9.288 104.143 9.336 104.207 9.384C105.423 10.28 106.031 11.592 106.031 13.32ZM99.9831 4.608C99.9031 4.608 99.8631 4.648 99.8631 4.728V7.8C99.8631 7.88 99.9031 7.92 99.9831 7.92H100.439C100.887 7.92 101.231 7.784 101.471 7.512C101.711 7.224 101.831 6.816 101.831 6.288C101.831 5.744 101.711 5.328 101.471 5.04C101.231 4.752 100.887 4.608 100.439 4.608H99.9831ZM100.703 14.568C101.119 14.568 101.447 14.408 101.687 14.088C101.927 13.768 102.047 13.312 102.047 12.72C102.047 12.128 101.927 11.656 101.687 11.304C101.447 10.952 101.127 10.776 100.727 10.776H99.9831C99.9031 10.776 99.8631 10.816 99.8631 10.896V14.448C99.8631 14.528 99.9031 14.568 99.9831 14.568H100.703ZM116.509 4.32C116.509 4.4 116.477 4.472 116.413 4.536C116.365 4.584 116.301 4.608 116.221 4.608H111.397C111.317 4.608 111.277 4.648 111.277 4.728V7.752C111.277 7.832 111.317 7.872 111.397 7.872H114.037C114.117 7.872 114.181 7.904 114.229 7.968C114.293 8.016 114.325 8.08 114.325 8.16V11.016C114.325 11.096 114.293 11.168 114.229 11.232C114.181 11.28 114.117 11.304 114.037 11.304H111.397C111.317 11.304 111.277 11.344 111.277 11.424V14.472C111.277 14.552 111.317 14.592 111.397 14.592H116.221C116.301 14.592 116.365 14.624 116.413 14.688C116.477 14.736 116.509 14.8 116.509 14.88V17.712C116.509 17.792 116.477 17.864 116.413 17.928C116.365 17.976 116.301 18 116.221 18H107.581C107.501 18 107.429 17.976 107.365 17.928C107.317 17.864 107.293 17.792 107.293 17.712V1.488C107.293 1.408 107.317 1.344 107.365 1.296C107.429 1.232 107.501 1.2 107.581 1.2H116.221C116.301 1.2 116.365 1.232 116.413 1.296C116.477 1.344 116.509 1.408 116.509 1.488V4.32Z" fill="white"/>
<defs>
<linearGradient id="paint0_linear_7156_1086" x1="0.431641" y1="9.68336" x2="11.3872" y2="9.68336" gradientUnits="userSpaceOnUse">
<stop stop-color="#A80D65"/>
<stop offset="1" stop-color="#871ABB"/>
</linearGradient>
<linearGradient id="paint1_linear_7156_1086" x1="14.957" y1="9.68361" x2="18.2433" y2="9.68361" gradientUnits="userSpaceOnUse">
<stop stop-color="#A80D65"/>
<stop offset="1" stop-color="#871ABB"/>
</linearGradient>
</defs>
</svg>
